#!OML:ASF F:\VICON\USERDATA\INSTALL\rory3\rory3.ASF
:FULLY-SPECIFIED
:DEGREES
428
root 1.1313 17.756 47.9177 -4.3094 -0.0513694 1.37841
lowerback 10.9022 -1.23515 -1.34117
upperback 0.31785 -1.75582 0.912162
thorax -5.71566 -0.815012 1.98549
lowerneck -16.2685 -2.45585 -3.16374
upperneck 21.935 -2.72702 0.545522
head 9.68863 -1.47288 0.361179
rclavicle -3.37934e-015 7.55382e-015
rhumerus -31.7086 -21.6892 -77.3601
rradius 25.0948
rwrist 4.35835
rhand -16.7614 23.1913
rfingers 7.12502
rthumb 9.46558 -6.57609
lclavicle -3.37934e-015 7.55382e-015
lhumerus -29.1611 -6.3257 82.4695
lradius 29.6757
lwrist 8.57418
lhand -26.5791 21.7934
lfingers 7.12502
lthumb -0.0136066 51.7731
rfemur -26.8869 -2.16474 21.1053
rtibia 59.5544
rfoot -14.5261 -9.50356
rtoes -3.37369
lfemur -2.33618 -3.20491 -26.8161
ltibia 27.573
lfoot -16.9861 -3.54062
ltoes 3.64136
429
root 1.11884 17.7634 48.0956 -4.36918 0.0479877 1.61058
lowerback 10.6765 -1.22784 -1.67804
upperback 0.538236 -1.78655 0.871259
thorax -5.34699 -0.828986 2.12565
lowerneck -19.3821 -4.23503 -4.62604
upperneck 24.2446 -4.94928 1.49812
head 11.2404 -2.49079 0.559928
rclavicle -1.42876e-014 2.0276e-014
rhumerus -31.8553 -21.7604 -77.3363
rradius 25.3988
rwrist 4.5212
rhand -16.2465 22.6732
rfingers 7.12502
rthumb 9.96239 -7.07105
lclavicle -1.42876e-014 2.0276e-014
lhumerus -28.5289 -6.66878 82.3025
lradius 30.0823
lwrist 8.789
lhand -26.9125 21.2922
lfingers 7.12502
lthumb -0.335562 51.2717
rfemur -27.2005 -1.92599 20.8412
rtibia 57.5353
rfoot -14.6677 -10.2783
rtoes -4.7478
lfemur -1.12799 -3.12424 -27.0862
ltibia 26.6628
lfoot -17.143 -3.33904
ltoes 1.57215
430
root 1.10833 17.7635 48.2463 -4.15975 0.197852 1.81306
lowerback 10.4497 -1.27165 -2.02018
upperback 0.628617 -1.88173 0.868662
thorax -5.10973 -0.872483 2.32055
lowerneck -17.2302 -2.95515 -3.73433
upperneck 21.9939 -3.4173 1.29512
head 9.92931 -1.74799 0.612332
rclavicle 1.63376e-014 6.75868e-015
rhumerus -31.8238 -21.8849 -77.2939
rradius 25.3015
rwrist 4.78366
rhand -15.3682 23.3474
rfingers 7.12502
rthumb 10.8096 -6.35444
lclavicle 1.63376e-014 6.75868e-015
lhumerus -27.828 -6.6972 82.1154
lradius 30.3103
lwrist 8.6649
lhand -27.0927 21.7344
lfingers 7.12502
lthumb -0.509593 51.7135
rfemur -27.8267 -1.77882 20.6018
rtibia 55.2894
rfoot -14.722 -10.8703
rtoes -6.05233
lfemur -0.36005 -3.05591 -27.2854
ltibia 25.8165
lfoot -17.2934 -3.37243
ltoes 0.77134
431
root 1.12397 17.749 48.3787 -3.95468 0.828337 2.64654
lowerback 10.7613 -1.43071 -2.56842
upperback 0.525234 -2.18144 0.597598
thorax -5.36727 -1.00431 2.40219
lowerneck -16.9892 -2.84879 -3.5037
upperneck 21.6137 -3.27953 1.06337
head 9.73661 -1.6923 0.516612
rclavicle -2.56184e-014 -7.95139e-016
rhumerus -31.9804 -22.1209 -77.1155
rradius 25.064
rwrist 5.11022
rhand -15.1395 24.1234
rfingers 7.12502
rthumb 11.0302 -5.56676
lclavicle -2.56184e-014 -7.95139e-016
lhumerus -27.2707 -6.9838 81.9883
lradius 30.6128
lwrist 8.80415
lhand -26.6239 21.9511
lfingers 7.12502
lthumb -0.0568129 51.9309
rfemur -28.3183 -2.44912 19.4639
rtibia 53.0003
rfoot -14.5884 -10.9473
rtoes -4.89284
lfemur 0.300805 -3.18164 -28.3075
ltibia 25.0066
lfoot -17.3124 -3.78
ltoes 1.8745
432
root 1.095 17.7532 48.5439 -3.91936 0.556857 2.16707
lowerback 11.1677 -1.31147 -2.38139
upperback 0.317017 -1.99913 0.811259
thorax -5.82389 -0.905659 2.51241
lowerneck -17.2279 -3.21184 -4.07513
upperneck 21.747 -3.7776 1.69819
head 9.86701 -1.89518 0.761045
rclavicle -2.39784e-014 3.18055e-015
rhumerus -32.5542 -22.2015 -76.8091
rradius 24.9598
rwrist 4.9925
rhand -15.1187 24.6146
rfingers 7.12502
rthumb 11.0503 -5.07455
lclavicle -2.39784e-014 3.18055e-015
lhumerus -27.3221 -7.57812 81.9644
lradius 31.1916
lwrist 9.02749
lhand -26.498 21.3836
lfingers 7.12502
lthumb 0.0647775 51.3633
rfemur -28.5168 -1.53224 20.1053
rtibia 50.389
rfoot -14.1304 -12.1141
rtoes -4.39492
lfemur 0.979346 -2.89694 -27.7031
ltibia 24.3463
lfoot -17.472 -3.58369
ltoes 1.2202
433
root 1.0794 17.7607 48.7145 -3.72838 0.488603 2.15065
lowerback 11.541 -1.27543 -2.40293
upperback -0.121894 -1.96727 0.804871
thorax -6.50024 -0.871635 2.5356
lowerneck -16.468 -2.68891 -3.4013
upperneck 21.8208 -3.09463 1.00829
head 9.70496 -1.60842 0.510946
rclavicle 9.46712e-015 5.1684e-015
rhumerus -33.4772 -21.9465 -76.5518
rradius 24.9402
rwrist 4.55602
rhand -15.2402 24.6408
rfingers 7.12502
rthumb 10.9331 -5.05457
lclavicle 9.46712e-015 5.1684e-015
lhumerus -27.783 -8.00988 81.8347
lradius 31.8331
lwrist 9.01804
lhand -26.4808 21.2405
lfingers 7.12502
lthumb 0.0813253 51.2202
rfemur -28.7139 -0.968212 20.0989
rtibia 47.6278
rfoot -13.9906 -12.8701
rtoes -3.88411
lfemur 1.61557 -2.75799 -27.6753
ltibia 23.7204
lfoot -17.5523 -3.47811
ltoes 2.23184
434
root 1.06414 17.7681 48.8774 -3.40652 0.557032 2.13535
lowerback 10.5546 -1.35531 -2.54101
upperback 0.341995 -2.06135 0.836906
thorax -5.4433 -0.93972 2.61674
lowerneck -20.0329 -4.33617 -4.51251
upperneck 23.9757 -5.15324 1.72993
head 11.2746 -2.53574 0.582911
rclavicle -2.63265e-014 -2.78299e-015
rhumerus -32.6712 -21.9356 -76.9971
rradius 24.7314
rwrist 4.14628
rhand -15.513 24.1112
rfingers 7.12502
rthumb 10.6699 -5.59789
lclavicle -2.63265e-014 -2.78299e-015
lhumerus -26.5264 -7.86783 81.4429
lradius 31.9788
lwrist 8.89081
lhand -26.6001 21.5678
lfingers 7.12502
lthumb -0.0338286 51.5475
rfemur -28.8447 -0.399033 20.0282
rtibia 44.6028
rfoot -12.7728 -13.1819
rtoes -2.84907
lfemur 2.17605 -2.77015 -27.6354
ltibia 23.173
lfoot -17.6021 -3.52152
ltoes 3.79754
